<svg viewBox="0 0 354.5610811711746 80" height="80" width="354.5610811711746" style="width: 354.561px; height: 80px; position: absolute; top: 50%; left: 50%; transform: translate(-50%, -50%) scale(0.490748); z-index: 0; cursor: pointer;"><defs id="SvgjsDefs1001"><linearGradient id="SvgjsLinearGradient1011"><stop id="SvgjsStop1012" stop-color="#2d388a" offset="0"></stop><stop id="SvgjsStop1013" stop-color="#00aeef" offset="1"></stop></linearGradient><linearGradient id="SvgjsLinearGradient1014"><stop id="SvgjsStop1015" stop-color="#2d388a" offset="0"></stop><stop id="SvgjsStop1016" stop-color="#00aeef" offset="1"></stop></linearGradient></defs><g id="SvgjsG1007" featurekey="nRdZyp-0" transform="matrix(0.8,0,0,0.8,0,0)" fill="url(#SvgjsLinearGradient1011)"><path xmlns="http://www.w3.org/2000/svg" d="M50,0C22.386,0,0,22.386,0,50c0,27.614,22.386,50,50,50s50-22.386,50-50C100,22.386,77.614,0,50,0z   M77.243,44.154c0.886-0.954,1.514-5.137,1.514-5.137s0.69,4.106,1.627,5.083c0.999,1.044,5.186,1.735,5.186,1.735  s-4.187,0.715-5.186,1.727c-0.986,0.994-1.627,5.085-1.627,5.085s-0.636-4.152-1.626-5.138c-0.986-0.99-5.192-1.674-5.192-1.674  S76.23,45.239,77.243,44.154z M59.908,34.887c0.518-0.557,0.883-2.998,0.883-2.998s0.404,2.397,0.951,2.967  c0.582,0.609,3.025,1.012,3.025,1.012s-2.444,0.419-3.025,1.009c-0.575,0.58-0.951,2.967-0.951,2.967s-0.37-2.424-0.948-2.998  c-0.575-0.578-3.03-0.978-3.03-0.978S59.318,35.519,59.908,34.887z M51.354,88.447c-21.233,0-38.445-17.215-38.445-38.447  c0-21.233,17.213-38.447,38.445-38.447c1.787,0,3.532,0.165,5.255,0.399C48.72,17.43,43.545,26.538,43.545,36.865  c0,16.748,13.574,30.319,30.319,30.319c4.747,0,9.225-1.12,13.226-3.065C81.459,78.356,67.599,88.447,51.354,88.447z"></path></g><g id="SvgjsG1008" featurekey="Q4qmbg-0" transform="matrix(3.3846150535568778,0,0,3.3846150535568778,101.5476927099284,-11.547688944137875)" fill="url(#SvgjsLinearGradient1014)"><path d="M6.22 9.98 c2.9 0 4.82 2.18 4.82 5.1 s-2.12 5.08 -5.02 5.08 c-0.64 0 -1.72 -0.36 -2.04 -0.82 l0 0.66 l-2.96 0 l0 -14.52 l2.96 0 l0 5.34 c0.34 -0.5 1.62 -0.84 2.24 -0.84 z M5.82 17.92 c1.24 0 2.26 -1.28 2.26 -2.84 c0 -1.58 -1.02 -2.86 -2.26 -2.86 c-1.36 0 -2.24 1.54 -2.24 2.86 s0.9 2.84 2.24 2.84 z M22.327708333333334 15.08 l0 0.66 l-7.04 0 c0 1.16 1.18 1.98 2.16 1.98 c0.96 0 1.84 -0.38 2.3 -1.22 l1.98 1.82 c-0.8 1.08 -2.02 1.84 -4.28 1.84 c-3.24 0 -5.22 -2.16 -5.22 -5.08 s1.92 -5.1 5.04 -5.1 s5.06 2.14 5.06 5.1 z M15.347708333333332 13.86 l3.88 0 c-0.16 -0.94 -0.84 -1.44 -1.96 -1.44 c-1.08 0 -1.74 0.58 -1.92 1.44 z M28.735416666666662 9.98 c2.9 0 4.82 2.18 4.82 5.1 s-2.12 5.08 -5.02 5.08 c-0.64 0 -1.72 -0.36 -2.04 -0.82 l0 0.66 l-2.96 0 l0 -14.52 l2.96 0 l0 5.34 c0.34 -0.5 1.62 -0.84 2.24 -0.84 z M28.335416666666664 17.92 c1.24 0 2.26 -1.28 2.26 -2.84 c0 -1.58 -1.02 -2.86 -2.26 -2.86 c-1.36 0 -2.24 1.54 -2.24 2.86 s0.9 2.84 2.24 2.84 z M41.52312499999999 10.26 l-0.4 2.22 c-0.74 -0.32 -0.88 -0.26 -1.22 -0.26 c-1.2 0 -1.9 0.64 -1.9 2.22 l0 5.56 l-2.96 0 l0 -9.88 l2.96 0 l0 0.88 c0.38 -0.68 1.42 -1.02 2.08 -1.02 c0.62 0 0.98 0.02 1.44 0.28 z M44.830833333333324 10.12 l0 9.88 l-2.96 0 l0 -9.88 l2.96 0 z M44.91083333333332 7.279999999999999 c0 0.84 -0.68 1.5 -1.58 1.5 c-0.86 0 -1.56 -0.66 -1.56 -1.5 c0 -0.82 0.7 -1.46 1.56 -1.46 c0.9 0 1.58 0.64 1.58 1.46 z M53.19854166666666 10.12 l2.96 0 l0 9.58 c0 2.92 -2.14 5.28 -5.22 5.28 c-1.7 0 -2.98 -0.78 -4.1 -2.02 l2.1 -1.9 c0.62 0.92 1.18 1.48 2 1.48 c1.4 0 2.24 -1.54 2.24 -3.22 c-0.36 0.48 -1.42 0.82 -2.04 0.82 c-2.88 0 -5 -2.16 -5 -5.08 s2.12 -5.1 5 -5.1 c0.68 0 1.74 0.36 2.06 0.82 l0 -0.66 z M51.33854166666666 17.92 c1.34 0 2.26 -1.54 2.26 -2.86 c0 -1.34 -0.9 -2.86 -2.26 -2.86 c-1.22 0 -2.24 1.28 -2.24 2.86 c0 1.56 1.02 2.86 2.24 2.86 z M67.24624999999999 14.36 l0 5.64 l-2.96 0 l0 -5.64 c0 -1.52 -0.4 -2.16 -1.56 -2.16 c-1.2 0 -1.9 0.64 -1.9 2.16 l0 5.64 l-2.96 0 l0 -14.52 l2.96 0 l0 5.74 c0.38 -1.1 1.82 -1.24 2.68 -1.24 c2.76 0 3.74 1.34 3.74 4.38 z M72.41395833333333 15.8 c0 0.72 -0.02 1.92 1.08 1.92 c0.54 0 0.88 -0.22 1.26 -0.5 l0 2.44 c-0.46 0.26 -1.02 0.5 -1.62 0.5 c-2.54 0 -3.68 -1.08 -3.68 -4.36 l0 -3.24 l-1.1 0 l0 -2.44 l1.1 0 l0 -2.84 l2.96 0 l0 2.84 l2.34 0 l0 2.44 l-2.34 0 l0 3.24 z"></path></g></svg>